<?xml version="1.0" encoding="utf-8"?>
<!-- Generator: Adobe Illustrator 28.0.0, SVG Export Plug-In . SVG Version: 6.00 Build 0)  -->
<svg version="1.1" id="Layer_1" xmlns="http://www.w3.org/2000/svg" xmlns:xlink="http://www.w3.org/1999/xlink" x="0px" y="0px"
	 viewBox="0 0 31.9 32" style="enable-background:new 0 0 31.9 32;" xml:space="preserve">
<style type="text/css">
	.st0{fill:#5862C2;}
	.st1{fill:#FEFEFE;}
</style>
<path class="st0" d="M31.2,15.4c0-1.7,0-3.3,0-5c0-0.2-0.1-0.4-0.3-0.5c-0.6-0.4-1.2-0.8-1.8-1.2c-0.7-0.5-1.3-0.9-2-1.4
	c-1-0.7-2-1.4-3-2c-0.7-0.5-1.4-1-2.1-1.4c-0.8-0.5-1.6-1.1-2.3-1.6c-0.6-0.4-1.2-0.8-1.8-1.2c-0.3-0.2-0.7-0.5-1-0.7
	c-0.2-0.1-0.4-0.2-0.6,0c-0.3,0.2-0.7,0.4-1,0.7c-0.9,0.6-1.7,1.2-2.6,1.8c-0.8,0.5-1.6,1.1-2.4,1.6c-0.7,0.5-1.5,1-2.2,1.5
	C6.9,6.3,6,6.9,5.2,7.5c-1.3,0.9-2.6,1.7-3.9,2.6c-0.1,0.1-0.2,0.2-0.2,0.3c0,0.2,0,0.4,0,0.6c0,0.8,0,1.7,0,2.5c0,0.9,0,1.7,0,2.6
	c0,0.5,0,1.1,0,1.6c0,1.3,0,2.6,0,4c0,0.2,0.1,0.3,0.2,0.4c0.6,0.4,1.2,0.7,1.8,1.1c0.8,0.5,1.7,1.1,2.5,1.6
	c1.3,0.8,2.6,1.7,3.9,2.5c0.9,0.6,1.8,1.1,2.7,1.7c0.6,0.4,1.2,0.8,1.8,1.2c0.7,0.4,1.3,0.9,2,1.3c0.1,0.1,0.2,0.1,0.4,0
	c0.6-0.3,1.1-0.7,1.6-1c0.8-0.5,1.7-1.1,2.5-1.6c1.2-0.7,2.3-1.5,3.5-2.2c1.2-0.8,2.4-1.5,3.6-2.3c0.6-0.4,1.3-0.8,1.9-1.2
	c0.4-0.2,0.8-0.5,1.2-0.8c0.3-0.1,0.5-0.3,0.5-0.6C31.2,19.5,31.2,17.4,31.2,15.4z M3.9,15.8C3.9,15.8,3.9,15.8,3.9,15.8
	C3.9,15.8,3.9,15.8,3.9,15.8C3.9,15.8,3.9,15.8,3.9,15.8z M4.7,17.8c-0.2,0.1-0.4,0.2-0.6,0.4C4,18.2,4,18.2,4,18.1c0,0,0-0.1,0-0.1
	c0-0.1,0-0.3,0-0.4c0-0.1,0-0.2,0-0.4c0-0.1,0-0.1,0-0.2c0,0,0-0.1,0-0.1c0-0.3,0-0.7,0-1c0,0,0-0.1,0-0.1c0,0,0-0.1,0-0.1
	c0-0.1,0-0.2,0-0.2c0-0.6,0-1.2,0-1.8c0.1-0.1,0.1,0,0.2,0c0.5,0.3,1.1,0.7,1.6,1c0.1,0,0.1,0.1,0.2,0.1c0,0,0,0,0,0
	c0.5,0.3,0.9,0.6,1.4,0.9c0.1,0.1,0.3,0.1,0.4,0.3C7.1,16.3,6.5,16.6,6,17c-0.2,0.1-0.4,0.2-0.5,0.4c0,0-0.1,0-0.1,0.1
	C5.1,17.5,4.9,17.7,4.7,17.8z M27.2,17.4C27.2,17.4,27.2,17.4,27.2,17.4c-0.2-0.1-0.4-0.2-0.5-0.3c-0.3-0.2-0.6-0.4-0.9-0.5
	c0,0,0,0,0,0c0,0,0,0,0,0c0-0.1,0-0.1-0.1-0.1c-0.2-0.1-0.4-0.3-0.7-0.4c-0.1,0-0.1-0.1-0.1-0.1c0,0,0,0,0,0c0.1,0.1,0.1,0,0.2,0
	c0.8-0.5,1.6-1,2.4-1.6c0.2-0.1,0.3-0.2,0.5-0.3c0,0.1,0,0.1,0,0.2c0,0.1,0,0.3,0,0.4c0,0.1,0,0.1,0,0.2c0,0,0,0.1-0.1,0.1
	c0,0.4,0,0.9,0,1.3c0,0,0,0.1,0,0.1c0,0,0,0,0,0c0,0.1,0,0.3,0,0.4c0,0.4,0,0.8,0,1.2c-0.1,0-0.1,0-0.1,0c0,0-0.1,0-0.1-0.1
	c0,0-0.1,0-0.1-0.1c-0.1-0.1-0.2-0.1-0.2-0.2C27.3,17.5,27.3,17.4,27.2,17.4z M17.8,5c0-0.2,0-0.4,0.1-0.6c0.1,0,0.2,0.1,0.3,0.1
	c0.3,0.2,0.5,0.3,0.7,0.5c1.3,0.9,2.7,1.7,4,2.6c1.2,0.8,2.3,1.5,3.5,2.3c0.3,0.2,0.6,0.4,0.9,0.6c0.1,0.1,0.1,0.1,0,0.2
	c-0.1,0.1-0.2,0.1-0.3,0.2c0,0-0.1,0.1-0.1,0.1c0,0,0,0,0,0c-0.1,0-0.2,0.1-0.3,0.1c-1.3,0.9-2.6,1.7-4,2.6c-0.1,0.1-0.2,0.1-0.3,0
	c-0.5-0.4-1.1-0.7-1.6-1.1c-0.9-0.6-1.8-1.2-2.8-1.8c-0.2-0.1-0.2-0.2-0.2-0.4c0-0.6,0-1.2,0-1.9c0-0.1,0-0.1,0-0.2c0,0,0,0,0,0
	c0-0.1,0-0.2,0-0.3C17.8,7.1,17.8,6,17.8,5z M5.2,10.6C5.8,10.2,6.4,9.8,7,9.4c1.5-1,3-2,4.5-3c1-0.7,2.1-1.4,3.1-2
	c0,0,0.1-0.1,0.1-0.1c0,0.1,0,0.1,0,0.2c0,2,0,3.9,0,5.9c0,0.1,0,0.2,0,0.3c-0.1,0.1,0,0.2-0.1,0.3c-0.2,0.2-0.5,0.4-0.8,0.5
	c-1.2,0.8-2.4,1.6-3.6,2.4c-0.1,0.1-0.2,0.1-0.4,0c-0.2-0.1-0.4-0.2-0.5-0.3C8.2,12.8,7,12,5.8,11.3c-0.1,0-0.1-0.1-0.2-0.1
	c0,0,0,0,0,0c0-0.1,0-0.1-0.1-0.1c-0.1-0.1-0.2-0.1-0.3-0.2C5,10.7,5,10.7,5.2,10.6z M14.6,27.2c-0.3-0.1-0.5-0.3-0.8-0.5
	c-1.5-1-3-1.9-4.4-2.9c-1.2-0.8-2.3-1.5-3.5-2.3C5.6,21.3,5.3,21.2,5,21c0.2-0.1,0.4-0.2,0.5-0.3c0.7-0.5,1.5-0.9,2.2-1.4
	c0.8-0.5,1.5-1,2.3-1.5c0.1-0.1,0.2-0.1,0.3,0c0.3,0.2,0.5,0.4,0.8,0.5c1.2,0.7,2.3,1.5,3.4,2.2c0.1,0,0.1,0.1,0.2,0.2
	c0,0.1,0,0.2,0,0.3c0,0,0,0.1,0,0.1c0,0.1,0,0.2,0,0.3c0,1.9,0,3.8,0,5.7c0,0.1,0,0.1,0,0.2C14.7,27.2,14.7,27.2,14.6,27.2z
	 M24.4,22.9c-0.8,0.5-1.7,1.1-2.5,1.6c-1.3,0.9-2.7,1.7-4,2.6c0,0-0.1,0.1-0.1,0c0-2.2,0-4.4,0-6.6c0-0.1,0-0.2,0.1-0.2
	c0,0,0,0,0.1,0c0.1-0.1,0.2-0.1,0.3-0.2c0.1,0,0.1-0.1,0.2-0.1c0.2-0.1,0.5-0.3,0.7-0.4c0.1-0.1,0.1-0.1,0.2-0.2
	c0.1,0,0.1-0.1,0.2-0.1c0.1,0,0.1-0.1,0.2-0.1c0.1-0.1,0.3-0.2,0.4-0.3c0,0,0.1-0.1,0.1-0.1c0,0,0.1,0,0.1-0.1c0,0,0.1-0.1,0.1-0.1
	c0.1,0,0.2-0.1,0.3-0.2c0,0,0.1,0,0.1-0.1c0,0,0,0,0,0c0,0,0.1-0.1,0.1-0.1c0.1-0.1,0.2-0.1,0.3-0.2c0,0,0.1,0,0.1-0.1
	c0,0,0.1,0,0.1-0.1c0,0,0.1,0,0.1,0c0.1,0,0.1-0.1,0.2-0.1c0,0,0,0,0.1-0.1c0,0,0.1,0,0.1,0c0.1-0.1,0.3-0.2,0.4-0.2c0,0,0,0,0,0
	c0,0,0,0,0,0c0.1,0.1,0.2,0.1,0.3,0.2c0.6,0.4,1.2,0.8,1.8,1.2c0.7,0.5,1.4,0.9,2.1,1.4c0.2,0.1,0.4,0.2,0.5,0.3
	c0.1,0.1,0.1,0.1,0,0.2c-0.1,0-0.1,0.1-0.2,0.2c-0.1,0-0.2,0.1-0.3,0.2C26,21.9,25.2,22.4,24.4,22.9z"/>
<path class="st1" d="M17.9,17.2c-0.5,0.3-1,0.6-1.4,0.9c-0.1,0.1-0.2,0.1-0.3,0c-0.5-0.3-1-0.7-1.5-1c0,0-0.1,0-0.1,0
	c-0.2,0-0.4-0.2-0.5-0.3c-0.4-0.3-0.9-0.6-1.3-0.8c0,0,0,0,0-0.1c0-0.1,0-0.1,0.1-0.2c0.5-0.3,1-0.7,1.5-1c0,0,0.1-0.1,0.1,0
	c0.4-0.3,0.8-0.5,1.2-0.8c0.2-0.1,0.4-0.3,0.6-0.4c0.1-0.1,0.2-0.1,0.3,0c0.6,0.4,1.1,0.7,1.7,1.1c0,0,0,0,0.1,0
	c0.3,0.1,0.6,0.4,0.9,0.6c0.2,0.1,0.4,0.3,0.7,0.4c0.2,0.1,0.2,0.2,0,0.3c0,0,0,0-0.1,0c-0.6,0.4-1.2,0.8-1.8,1.2
	C18,17.2,17.9,17.2,17.9,17.2z"/>
</svg>
