<?xml version="1.0" encoding="utf-8"?>
<!-- Generator: Adobe Illustrator 28.0.0, SVG Export Plug-In . SVG Version: 6.00 Build 0)  -->
<svg version="1.1" id="Layer_1" xmlns="http://www.w3.org/2000/svg" xmlns:xlink="http://www.w3.org/1999/xlink" x="0px" y="0px"
	 viewBox="0 0 517 59" style="enable-background:new 0 0 517 59;" xml:space="preserve">
<style type="text/css">
	.st0{fill:#BBBBBF;}
	.st1{fill:#02FEFE;}
	.st2{fill:#FE02FE;}
	.st3{fill:#FE03FE;}
	.st4{fill:#03FEFE;}
	.st5{fill:#05FEFE;}
	.st6{fill:#06FEFE;}
	.st7{fill:#FE09FE;}
	.st8{fill:#07FEFE;}
	.st9{fill:#04FEFE;}
	.st10{fill:#FD05FE;}
	.st11{fill:#FE04FE;}
	.st12{fill:#FEADFE;}
	.st13{fill:#08FEFE;}
	.st14{fill:#FE0CFE;}
	.st15{fill:#FE0AFE;}
	.st16{fill:#85FEFE;}
	.st17{fill:#4FFEFE;}
	.st18{fill:#FE91FE;}
	.st19{fill:#09FEFE;}
	.st20{fill:#FE06FE;}
	.st21{fill:#FE0EFE;}
	.st22{fill:#0CFEFE;}
	.st23{fill:#FB08FE;}
	.st24{fill:#FE11FE;}
	.st25{fill:#86FDFE;}
	.st26{fill:#85FCFE;}
	.st27{fill:#FE4FFE;}
	.st28{fill:#FD92FE;}
	.st29{fill:#52FEFE;}
	.st30{fill:#FE4DFE;}
	.st31{fill:#FE4EFE;}
	.st32{fill:#4FAFFE;}
	.st33{fill:#42FEFE;}
	.st34{fill:#0AFEFE;}
</style>
<path class="st0" d="M7.9,45H3V19.8h11.3c4.9,0,8.1,2.9,8.1,7.9s-3.2,8-8.1,8H7.9V45z M7.9,24.1v7.2h5.9c2.5,0,3.8-1.5,3.8-3.6
	s-1.3-3.6-3.8-3.6H7.9z M33.4,45.4c-5.4,0-9-4-9-9.4s3.6-9.4,9-9.4s9,4,9,9.4S38.8,45.4,33.4,45.4z M33.3,41.6h0.3
	c2.5,0,4.1-2.1,4.1-5.6s-1.6-5.6-4.1-5.6h-0.3c-2.5,0-4.1,2.1-4.1,5.6S30.7,41.6,33.3,41.6z M63.3,40.2L66.7,27h4.5l-5.1,18h-5.3
	l-3.2-12.6l-3,12.6h-5.3l-5.5-18h4.7l3.6,13.4L55.1,27h5L63.3,40.2z M81.5,45.4c-4.5,0-8.6-3.4-8.6-9.4c0-5.4,3.2-9.4,8.6-9.4
	c5.4,0,8.2,3.9,8.2,9.1c0,0.5,0,1.1-0.1,1.7H77.5c0.2,2.5,2.1,4.1,4.1,4.1h0.3c1.8,0,2.8-1,3.2-2.3h4.6C88.8,42.8,86,45.4,81.5,45.4
	z M77.5,33.9h7.7c-0.1-2.2-1.8-3.5-3.7-3.5h-0.3C79.2,30.4,77.6,31.7,77.5,33.9z M98.3,45h-4.7V27h4.7v3.6c0.7-2.3,2.5-3.8,5.2-3.8
	h0.9v4.3h-1.6c-3.1,0-4.5,1.4-4.5,4.5V45z M114.6,45.4c-4.5,0-8.6-3.4-8.6-9.4c0-5.4,3.2-9.4,8.6-9.4s8.2,3.9,8.2,9.1
	c0,0.5,0,1.1-0.1,1.7h-12.2c0.2,2.5,2.1,4.1,4.1,4.1h0.3c1.8,0,2.8-1,3.2-2.3h4.6C121.9,42.8,119.1,45.4,114.6,45.4z M110.6,33.9
	h7.7c-0.1-2.2-1.8-3.5-3.7-3.5h-0.3C112.4,30.4,110.7,31.7,110.6,33.9z M133.7,45.4c-5.2,0-8-4.5-8-9.4s2.8-9.4,8-9.4
	c2.5,0,4.5,1.4,5.2,2.7v-9.5h4.7V45h-4.7v-2.3C138.1,43.9,136.2,45.4,133.7,45.4z M134.5,41.6h0.3c2.2,0,4.1-2.2,4.1-5.6
	s-1.9-5.6-4.1-5.6h-0.3c-2.3,0-4.1,2.1-4.1,5.5C130.4,39.4,132.1,41.6,134.5,41.6z M166.7,45.4c-2.5,0-4.5-1.4-5.2-2.7V45h-4.7V19.8
	h4.7v9.5c0.7-1.3,2.7-2.7,5.2-2.7c5.2,0,8,4.5,8,9.4S171.9,45.4,166.7,45.4z M165.6,41.6h0.3c2.3,0,4.1-2.2,4.1-5.6
	c0-3.4-1.8-5.5-4.1-5.5h-0.3c-2.2,0-4.1,2.2-4.1,5.6S163.4,41.6,165.6,41.6z M190.6,27h5.2l-7.7,16.4v4.2c0,3.1-1.6,4.7-4.7,4.7
	h-6.6v-4h4.8c1.6,0,2-0.4,2-2v-2.7L175.8,27h5.3l4.9,10.9L190.6,27z"/>
<g>
	<path class="st1" d="M237.5,52c0.8-4.7-0.8-8.3-4.5-11.2c-2.1-1.6-3.8-3.8-5.8-5.7c-1.1-1-1.1-1.7,0-2.7c2.5-2.3,4.7-4.9,7.3-7.1
		c2.3-2,3.6-4.3,3.2-7.5c-0.1-0.9-0.5-2.2,1.4-2.2c1.8,0,1.2,1.2,1.4,2.2c0.5,3.4-0.7,6-3.4,8.3c-2.5,2.1-4.7,4.7-7.1,7
		c-0.9,0.9-0.9,1.5,0,2.4c2.6,2.4,4.9,5.1,7.6,7.5c2.2,2,3.4,4.1,2.9,7.1c-0.1,0.8-0.1,1.7-0.1,2.5C239.3,52.5,238.2,53.4,237.5,52z
		"/>
	<path class="st2" d="M426.2,15.4c-3.6,1.6-5.2,4.4-5.1,8.4c0.2,8.7,0.1,17.3,0,26c0,1,0.4,2.2-1.4,2.1c-1.8,0-1.3-1.3-1.3-2.2
		c0-8.9,0.1-17.8,0-26.7c0-4.1,1.7-6.7,5.5-8.2C424.7,14.7,425.6,14.1,426.2,15.4z"/>
	<path class="st2" d="M345,15.4c-0.8,4.7,0.7,8.3,4.5,11.2c2.2,1.7,3.9,3.9,6,5.8c1,1,1,1.6,0,2.6c-2.5,2.3-4.7,4.9-7.2,7.1
		c-2.4,2.1-3.7,4.4-3.2,7.7c0.1,1,0.4,2.1-1.4,2.1c-1.7,0-1.2-1.1-1.3-2c-0.5-3.4,0.6-6.1,3.3-8.3c2.5-2.1,4.7-4.7,7.1-7
		c1.1-1,1.1-1.7,0-2.7c-3-2.9-5.9-5.8-8.8-8.8c-1.3-1.3-2.4-6.3-1.6-7.8c0.6-1.1,1.7-0.4,2.6-0.5C345.2,15,345.2,15.2,345,15.4z"/>
	<path class="st3" d="M200.4,22.1c3.1,3.6,6.6,6.8,10,10.1c1.3,1.2,1.1,1.9-0.1,3c-2.4,2.2-4.5,4.7-6.9,6.8
		c-2.4,2.1-3.9,4.5-3.4,7.9c0.1,0.9,0.3,2-1.3,2c-1.6,0-1.3-1-1.4-2c-0.4-3.4,0.6-6.1,3.3-8.3c2.6-2.2,4.8-4.8,7.3-7.1
		c1-1,0.9-1.6,0-2.5c-3-2.9-5.8-5.9-8.8-8.7c-2.5-2.3-1.7-5.2-1.6-7.8c0.1-1.3,1.6-0.5,2.5-0.6C200.5,17.2,199.7,19.7,200.4,22.1z"
		/>
	<path class="st1" d="M382.5,52c0.7-4.6-0.7-8.2-4.4-11c-2.1-1.6-3.7-3.8-5.7-5.5c-1.5-1.3-1.3-2.1,0.1-3.4c2.4-2.2,4.5-4.7,6.9-6.8
		c2.4-2,3.6-4.4,3.1-7.5c-0.1-0.9-0.4-2,1.3-2c1.8-0.1,1.4,1.1,1.5,2.1c0.5,3.4-0.6,5.9-3.3,8.1c-2.5,2.1-4.6,4.6-7,6.8
		c-1.2,1.1-1.4,1.9,0,3c2.1,1.9,3.9,4.3,6.2,6c3.7,2.8,4.8,6.4,4,10.7C384.2,52.6,383.1,53.4,382.5,52z"/>
	<path class="st4" d="M458.6,52c0-9.4-0.1-18.8,0-28.1c0-2.8-0.7-5.2-2.7-7.1c-0.1-0.5,0.1-0.7,0.6-0.6c3,1.1,4.8,3.3,4.8,6.4
		c0.1,10,0,19.9,0,29.9C460.3,52.6,459.3,53.4,458.6,52z"/>
	<path class="st5" d="M494.8,44.7c-2.1,0.4-2.8-0.3-2.8-2.6c0.2-6.4,0.1-12.7,0.1-19.1c1-0.1,2.1-0.9,2.8,0.5c0,6.9,0,13.8,0,20.7
		C495.1,44.5,495.1,44.6,494.8,44.7z"/>
	<path class="st5" d="M273.8,23.5c0,6.9,0,13.8,0,20.7c0.2,0.2,0.1,0.4-0.1,0.5c-2.1,0.4-2.8-0.3-2.8-2.6c0.2-6.4,0.1-12.7,0.1-19.1
		C272,23,273.1,22.1,273.8,23.5z"/>
	<path class="st6" d="M322.1,44.7c-0.7,0-1.4,0-2.1,0c-0.8-0.4-0.7-1.1-0.7-1.8c0-6.2,0-12.3,0-18.5c0-0.6-0.3-1.4,0.5-1.5
		c0.8-0.1,1.9-0.8,2.5,0.6c0,6.9,0,13.8,0,20.8C322.5,44.5,322.5,44.7,322.1,44.7z"/>
	<path class="st2" d="M484.5,23.4c0,6.3-0.1,12.5,0.1,18.8c0.1,2.2-0.6,3-2.8,2.6c-0.5-0.6-0.3-1.3-0.3-2c0-6.4-0.1-12.8,0.1-19.2
		C482.5,22.8,483.5,23,484.5,23.4z"/>
	<path class="st2" d="M263.4,23.4c0,6.3-0.1,12.5,0.1,18.8c0.1,2.2-0.6,3-2.8,2.6c-0.5-0.6-0.3-1.3-0.3-2c0-6.4-0.1-12.8,0.1-19.2
		C261.4,22.8,262.4,23,263.4,23.4z"/>
	<path class="st7" d="M311.7,23.5c0,6.2-0.1,12.5,0,18.7c0,2-0.4,3-2.6,2.6c-0.5-1.4-0.2-2.8-0.2-4.2c0-5.6-0.1-11.2,0-16.9
		C309.8,22.7,310.7,22.9,311.7,23.5z"/>
	<path class="st8" d="M364.3,40.6c-2.7,2.7-5.4,5.4-8.2,8c-1.2,1.1-0.4,2.6-0.8,3.8c-0.9,0.1-2,0.9-2.7-0.4c-0.4-2.3,0.5-4,2.2-5.5
		c2.6-2.3,5-4.8,7.3-7.3c1.4-1.6,2.3-1.3,3.1,0.4C365.4,40.3,365,40.5,364.3,40.6z"/>
	<path class="st9" d="M219.4,40.6c-2.8,2.8-5.7,5.5-8.5,8.3c-0.4,0.3-0.3,0.8-0.3,1.2c-0.1,2.9-0.1,2.9-3.1,2.3
		c-0.4-2.9,1.2-4.8,3.2-6.7c2.3-2.1,4.6-4.3,6.7-6.7c1.3-1.5,2.1-1.2,3,0.3C220.4,40.1,220,40.4,219.4,40.6z"/>
	<path class="st1" d="M428.7,52c0-4,0.1-8,0-12c-0.1-2.3,0.6-3,2.8-2.5c0.2,0.2,0.3,0.3,0.1,0.6c0,4.8-0.1,9.6-0.1,14.4
		C430.5,52.5,429.4,53.4,428.7,52z"/>
	<path class="st10" d="M218.5,26.9c2.2-2.2,4.3-4.4,6.5-6.5c1.3-1.2,2.3-2.4,2.1-4.4c-0.1-2.1,1.7-0.9,2.6-1.2
		c0.2,0.2,0.3,0.4,0.1,0.6c0.4,2.5-0.6,4.2-2.5,5.8c-2.6,2.3-5,4.8-7.6,7.3C218.8,28.5,218.2,28.2,218.5,26.9z"/>
	<path class="st11" d="M363.4,27c2.5-2.5,4.9-5,7.4-7.5c0.6-0.6,1.4-1.2,1.2-2.2c-0.4-2.4,0.8-2.8,2.8-2.4c0.2,0.2,0.3,0.4,0.1,0.6
		c0.4,2.5-0.7,4.2-2.5,5.8c-2.6,2.3-5.1,4.9-7.6,7.3C363.8,28.5,363.3,28.1,363.4,27z"/>
	<path class="st2" d="M450.9,38c0,4.1,0,8.2,0.1,12.4c0,1.1-0.2,1.6-1.5,1.6c-1.4,0-1.3-0.8-1.3-1.8c0-4,0-8.1,0-12.1
		c0.1-0.1,0.2-0.2,0.3-0.3C449.2,37.8,450.1,37.6,450.9,38z"/>
	<path class="st12" d="M294.2,22.1c-1.1-2.2-0.3-4.6-0.4-6.8c0-0.8,0.7-0.9,1.3-0.9c11.8,0,23.6,0,35.3,0.1c0.3,0,0.6,0,0.7,0.9
		c-11.4,0-22.8,0-34.2,0c-1.7,0.2-2.1,1.2-2.1,2.7C294.8,19.4,295.1,20.9,294.2,22.1z"/>
	<path class="st13" d="M218.5,26.9c0.5,0.5,0.9,1.1,1.4,1.6c-0.6,1.1-1.2,1.3-2.2,0.3c-3-3.1-6.1-6.2-9.2-9.2
		c-1.1-1-0.9-2.2-0.8-3.3c0.1-0.8,1-0.5,1.5-0.6c1.1-0.1,1.6,0.4,1.4,1.4c-0.3,1.8,0.7,2.9,1.9,4.1C214.5,23.1,216.5,25,218.5,26.9z
		"/>
	<path class="st12" d="M245.7,14.9c0.4-0.7,1-0.5,1.6-0.5c11.3,0,22.6,0,33.9,0c0.5,0,1.1-0.2,1.7,0.9c-11.7,0-23,0-34.4,0
		C247.5,15.5,246.5,15.6,245.7,14.9z"/>
	<path class="st12" d="M466.8,14.9c0.4-0.7,1-0.5,1.6-0.5c11.3,0,22.6,0,33.9,0c0.5,0,1-0.1,2,1c-12,0-23.3,0-34.7,0
		C468.6,15.5,467.7,15.6,466.8,14.9z"/>
	<path class="st14" d="M364.3,40.6c0.3-0.3,0.7-0.7,1-1c3.3,2.6,6,5.9,9.1,8.8c0.9,0.8,0.5,2,0.4,3c-0.1,0.7-0.8,0.5-1.3,0.6
		c-1,0.1-1.7-0.2-1.5-1.4c0.3-1.8-0.7-2.9-1.9-4.1C368.2,44.6,366.3,42.6,364.3,40.6z"/>
	<path class="st6" d="M363.4,27c0.5,0.5,0.9,1,1.4,1.5c-0.5,0.8-1,1.5-2,0.4c-3.1-3.2-6.2-6.3-9.4-9.4c-1-1-0.8-2.1-0.7-3.2
		c0-0.8,0.7-0.6,1.2-0.7c1.2-0.2,1.7,0.4,1.5,1.5c-0.2,1.4,0.4,2.4,1.4,3.3C359,22.7,361.2,24.9,363.4,27z"/>
	<path class="st15" d="M219.4,40.6c0.3-0.4,0.6-0.8,0.9-1.2c3,2.9,5.9,5.8,8.9,8.7c0.9,0.9,0.6,1.9,0.6,3c0,1-0.8,0.8-1.5,0.9
		c-0.6,0-1.4-0.1-1.2-0.9c0.6-2.9-1.6-4.3-3.3-6C222.4,43.6,220.9,42.1,219.4,40.6z"/>
	<path class="st16" d="M322.3,23.5c-2.4-0.9-2.7-0.8-2.7,1.5c0,5.9,0,11.7,0,17.6c0,0.8,0,1.5,0.4,2.2c-1.1,0-0.9-0.8-0.9-1.5
		c0-6.3,0-12.7,0-19c0-1.5,0.6-1.8,1.9-1.8c3.5,0.1,7.1-0.1,10.6,0.1c2.1,0.1,2.7-0.6,2.5-2.6c-0.1-0.9,0-1.8,0-2.7
		c0-2.3,0.8-2.7,3.1-1.5c-1.8,0.9-2.7,4-1.9,5.8c0.4,0.9,1.3,0.5,1.9,0.9c-0.1,1.4-1.2,0.9-1.8,0.9C331,23.5,326.6,23.5,322.3,23.5z
		"/>
	<path class="st17" d="M334.5,45.7c2.3-1,2.7-0.7,2.8,1.4c0.2,5.8,0.2,5.8-5.7,5.8c-9.7,0-19.5,0-29.2,0c-0.8,0-1.6,0-2.8,0
		c1.1-0.8,1.9-0.5,2.7-0.5c9.8,0,19.6-0.1,29.4,0c2,0,2.6-0.6,2.5-2.6C334.1,48.5,333.8,47,334.5,45.7c0.9,0.9,0.6,2.1,0.7,3.2
		c0.1,0.8-0.2,1.8,0.5,2.6C336.6,48.5,336.3,47.2,334.5,45.7z"/>
	<path class="st18" d="M309,23.5c0,7.1,0.1,14.1,0.1,21.2c-3.4,0-6.7,0.1-10.1,0c-1.7,0-2.2,0.6-2.2,2.2c0,1.6,0.7,3.4-0.5,4.9
		c-1.2-1.8,0-4-1-6.2c-1.1,2.1-0.1,4.3-0.7,6.2c-0.4,0.1-0.8-0.1-0.9-0.5c-0.1-0.4-0.1-0.9-0.1-1.3c-0.1-5.8-0.1-5.8,5.7-5.8
		c2.4,0,4.8-0.1,7.2,0c1.5,0.1,2.1-0.4,2.1-2c-0.1-6.2-0.1-12.5-0.1-18.7C308.8,23.4,308.9,23.4,309,23.5z"/>
	<path class="st12" d="M426.2,15.4c-0.7-0.9-1.6-0.3-2.4-0.5c0.7-0.8,1.7-0.5,2.5-0.5c6.8,0,13.7,0,20.5,0c1,0,1.9,0.1,3.1,1
		C441.8,15.4,434,15.4,426.2,15.4z"/>
	<path class="st19" d="M286,15.8c2.5-0.8,2.7-0.6,2.7,1.8c0,1.8-0.1,3.6-0.1,5.3c-2.8,0.6-2.9,0.6-2.8-2
		C285.8,19.2,285.5,17.5,286,15.8z"/>
	<path class="st19" d="M507.1,15.8c2.5-0.8,2.7-0.6,2.7,1.8c0,1.8,0,3.6-0.1,5.3c-2.8,0.6-2.9,0.6-2.8-2
		C507,19.2,506.7,17.5,507.1,15.8z"/>
	<path class="st3" d="M245.7,14.9c1,0.1,2-0.5,2.8,0.5c0,1.8-0.1,3.6-0.1,5.4c0,1-0.3,1.5-1.4,1.5c-1.1,0-1.4-0.5-1.4-1.5
		C245.7,18.8,245.7,16.8,245.7,14.9z"/>
	<path class="st3" d="M466.8,14.9c1,0.1,2-0.5,2.8,0.5c0,1.8-0.1,3.6-0.1,5.4c0,1-0.3,1.5-1.4,1.5c-1.1,0-1.4-0.5-1.4-1.5
		C466.8,18.8,466.8,16.8,466.8,14.9z"/>
	<path class="st8" d="M507.1,52c0-1.8,0-3.6,0-5.4c0-1.1,0.5-1.4,1.5-1.4c1,0,1.3,0.5,1.3,1.4c-0.1,1.9-0.1,3.9-0.1,5.8
		C508.8,52.5,507.8,53.4,507.1,52z"/>
	<path class="st20" d="M248.5,45.3c0,1.8-0.1,3.6,0,5.4c0,1-0.3,1.3-1.3,1.3c-1,0-1.6-0.2-1.5-1.3c0.1-1.9,0-3.9,0.1-5.8
		C246.6,44.7,247.7,43.9,248.5,45.3z"/>
	<path class="st20" d="M469.6,45.3c0,1.8-0.1,3.6,0,5.4c0,1-0.3,1.3-1.3,1.3c-1,0-1.6-0.2-1.5-1.3c0.1-1.9,0-3.9,0.1-5.8
		C467.8,44.7,468.9,43.9,469.6,45.3z"/>
	<path class="st8" d="M285.9,52c0-1.8,0-3.6,0-5.4c0-1.1,0.5-1.4,1.5-1.4c1,0,1.3,0.5,1.3,1.4c-0.1,1.9-0.1,3.9-0.1,5.8
		C287.7,52.5,286.6,53.4,285.9,52z"/>
	<path class="st21" d="M294.2,22.1c0-1.8-0.1-3.6,0-5.4c0-2.2,0.4-2.4,2.7-1.4c0,1.5-0.2,3-0.1,4.5C297,21.9,296.1,22.6,294.2,22.1z
		"/>
	<path class="st22" d="M337.1,22.5c-2.4,0.9-2.6,0.8-2.6-1.6c0-0.9,0.1-1.8,0-2.7c-0.3-2.1,0.5-3,2.6-2.4
		C337.1,18.1,337.1,20.3,337.1,22.5z"/>
	<path class="st16" d="M428.8,23.1c0.3-0.7,1-0.5,1.6-0.5c6.3,0,12.5,0,18.8,0c0.7,0,1.6-0.3,1.8,0.8c-0.7,0.8-1.7,0.7-2.7,0.7
		c-0.3,0-0.6,0-0.8,0c-5.2,0-10.4,0.2-15.6-0.1C430.8,23.7,429.7,23.8,428.8,23.1z"/>
	<path class="st13" d="M428.8,23.1c0.9,0.1,2-0.5,2.8,0.5c0.9,1.8,0.6,3.7,0.3,5.6c-0.1,0.2-0.3,0.5-0.5,0.7c-2.1,0.4-3-0.3-2.7-2.5
		C428.9,25.9,428.8,24.5,428.8,23.1z"/>
	<path class="st17" d="M507.1,52c0.8,0.9,1.8,0.4,2.7,0.5c-0.3,0.8-1,0.5-1.6,0.5c-11.6,0-23.2,0-34.8,0c-0.2,0-0.4-0.1-0.7-0.5
		c0.7,0,1.4-0.1,2.1-0.1c9.9,0,19.7,0,29.6,0C505.3,52.4,506.3,52.5,507.1,52z"/>
	<path class="st23" d="M448.2,23.5c0.9-0.4,1.8-0.2,2.7-0.2c0,1.3-0.1,2.6,0,3.8c0.3,2.2-0.6,3-2.7,2.6
		C447.2,27.7,447.3,25.6,448.2,23.5z"/>
	<path class="st17" d="M285.9,52c0.8,0.9,1.8,0.4,2.7,0.5c-0.3,0.8-1,0.5-1.6,0.5c-11.6,0-23.2,0-34.8,0c-0.2,0-0.4-0.1-0.7-0.5
		c0.7,0,1.4-0.1,2.1-0.1c9.9,0,19.7,0,29.6,0C284.2,52.4,285.1,52.5,285.9,52z"/>
	<path class="st16" d="M286,15.8c0,1.6,0.2,3.2,0,4.7c-0.2,2.2,0.6,2.9,2.6,2.4c-0.6,0.9-1.5,0.5-2.2,0.5c-4.2,0.1-8.4,0.1-12.6,0.1
		c-0.8-0.9-1.8-0.4-2.8-0.5c0.6-0.9,1.5-0.5,2.3-0.5c3.5,0,6.9-0.1,10.4,0c1.5,0,1.9-0.5,1.9-2C285.7,19,285.2,17.4,286,15.8z"/>
	<path class="st16" d="M507.1,15.8c0,1.6,0.2,3.2,0,4.7c-0.2,2.2,0.6,2.9,2.6,2.4c-0.6,0.9-1.5,0.5-2.2,0.5
		c-4.2,0.1-8.4,0.1-12.6,0.1c-0.8-0.9-1.8-0.4-2.8-0.5c0.6-0.9,1.5-0.5,2.3-0.5c3.5,0,6.9-0.1,10.4,0c1.5,0,1.9-0.5,1.9-2
		C506.8,19,506.3,17.4,507.1,15.8z"/>
	<path class="st18" d="M248.5,45.3c-0.8-1-1.8-0.4-2.8-0.5c0.6-0.9,1.5-0.5,2.3-0.5c3.5,0,6.9-0.1,10.4,0c1.5,0,1.9-0.5,1.9-2
		c-0.1-6.3,0-12.5,0-18.8c0.1-0.2,0.3-0.2,0.4,0c0,7.1,0,14.1,0,21.2c-3.2,0-6.4,0.1-9.6,0.1C250.2,44.8,249.3,44.7,248.5,45.3z"/>
	<path class="st18" d="M469.6,45.3c-0.8-1-1.8-0.4-2.8-0.5c0.6-0.9,1.5-0.5,2.3-0.5c3.5,0,6.9-0.1,10.4,0c1.5,0,1.9-0.5,1.9-2
		c-0.1-6.3,0-12.5,0-18.8c0.1-0.2,0.3-0.2,0.4,0c0,7.1,0,14.1,0,21.2c-3.2,0-6.4,0.1-9.6,0.1C471.3,44.8,470.4,44.7,469.6,45.3z"/>
	<path class="st24" d="M294.7,51.9c-1.1-2.1-0.3-4.2-0.5-6.4c-0.1-0.8,0.6-0.9,1.3-0.9c0.8,0,1,0.5,1,1.2c0,2-0.1,4-0.1,6
		C295.8,51.9,295.2,51.9,294.7,51.9z"/>
	<path class="st25" d="M260.6,23.6l-0.2,0c0,0-0.2,0-0.2,0c-2.9,0-5.9,0-8.8,0c0-0.3,0-0.5,0-0.8c1.3-0.4,2.7-0.2,4.1-0.2
		c2,0,4.1,0,6.1,0c0.7,0,1.6-0.3,1.8,0.8C262.5,23.3,261.5,23.2,260.6,23.6z"/>
	<path class="st26" d="M309,23.5l-0.2,0c0,0-0.2,0.1-0.2,0.1c-2.9,0-5.8,0-8.8,0c0-0.4,0-0.7,0.1-0.7c3.7-0.5,7.5-0.2,11.2-0.2
		c0.4,0,0.6,0.4,0.6,0.8C310.8,23.3,309.9,23.2,309,23.5z"/>
	<path class="st25" d="M481.8,23.6l-0.2,0c0,0-0.2,0-0.2,0c-2.9,0-5.9,0-8.8,0c0-0.3,0-0.5,0-0.8c1.3-0.4,2.7-0.2,4.1-0.2
		c2,0,4.1,0,6.1,0c0.7,0,1.6-0.3,1.8,0.8C483.6,23.3,482.7,23.2,481.8,23.6z"/>
	<path class="st18" d="M448.2,23.5c0,2.1,0,4.2,0,6.2c-5.6,0-11.2,0-16.8,0c0-0.2,0.1-0.3,0.1-0.5c0.9-0.8,2-0.6,3-0.6
		c3.2,0,6.5,0,9.7,0c2.6,0,2.7-0.1,2.8-2.6c0.1-0.9,0-1.8,0.8-2.5C448,23.5,448.1,23.5,448.2,23.5z"/>
	<path class="st17" d="M431.5,38.1c0-0.2,0-0.4-0.1-0.6c5.6,0,11.2,0,16.8,0c0.1,0.1,0.2,0.2,0.1,0.3c0,0.1-0.1,0.2-0.1,0.2
		c0,0-0.1,0.1-0.1,0.1C442.6,38.1,437.1,38.1,431.5,38.1z"/>
	<path class="st27" d="M200.4,22.1c-1.1-2.4-0.3-4.8-0.4-7.3c1.5-0.1,3.1-0.2,4.8,0.1c-1.4,0.8-3.4-0.4-4.1,0.7
		c-0.9,1.5-0.2,3.5-0.3,5.3C200.3,21.4,200.3,21.8,200.4,22.1z"/>
	<path class="st17" d="M207.5,52.5c1.9,0.3,3.2,0,2.8-2.4c-0.1-0.5,0.1-0.9,0.5-1.1c-0.3,4-0.3,4-4.4,4c-1,0-2.1,0-3.1,0
		C204.7,52.2,206.1,52.4,207.5,52.5z"/>
	<path class="st28" d="M494.8,44.7c0-0.2,0.1-0.3,0.1-0.5c2.8,0,5.7,0,8.5,0c0,0.2,0,0.3,0,0.5C500.6,44.7,497.7,44.7,494.8,44.7z"
		/>
	<path class="st28" d="M273.7,44.7c0-0.2,0.1-0.3,0.1-0.5c2.8,0,5.7,0,8.5,0c0,0.2,0,0.3,0,0.5C279.5,44.7,276.6,44.7,273.7,44.7z"
		/>
	<path class="st28" d="M322.1,44.7c0.1-0.2,0.1-0.3,0.2-0.5c2.9,0,5.7,0,8.6,0c0,0.2,0,0.3,0,0.5C327.9,44.7,325,44.7,322.1,44.7z"
		/>
	<path class="st17" d="M237.5,52c0.8,0.8,1.8,0.3,2.7,0.4c-2.4,1-4.8,0.2-7.2,0.3C234.4,52,236.1,52.8,237.5,52z"/>
	<path class="st17" d="M352.6,52c0.8,0.8,1.8,0.3,2.7,0.4c-2.4,1-4.8,0.2-7.2,0.3C349.5,52,351.2,52.8,352.6,52z"/>
	<path class="st29" d="M382.5,52c0.8,0.9,1.8,0.4,2.7,0.5c-2.4,1.1-4.8,0.2-7.2,0.3C379.4,51.9,381.1,52.8,382.5,52z"/>
	<path class="st17" d="M428.7,52c0.8,0.8,1.8,0.3,2.7,0.4c-2.4,1-4.8,0.2-7.2,0.3C425.7,52,427.3,52.8,428.7,52z"/>
	<path class="st29" d="M458.6,52c0.8,0.9,1.8,0.4,2.7,0.5c-2.4,1.1-4.8,0.2-7.2,0.3C455.5,51.9,457.2,52.8,458.6,52z"/>
	<path class="st30" d="M345,15.4c0-0.2,0-0.4-0.1-0.6c1.5,0,3,0,4.4,0c0,0.1,0,0.2,0,0.4C347.9,15.3,346.5,15.4,345,15.4z"/>
	<path class="st30" d="M229.9,15.4c0-0.2,0-0.4-0.1-0.6c1.5,0,3,0,4.4,0c0,0.1,0,0.2,0,0.4C232.8,15.3,231.4,15.4,229.9,15.4z"/>
	<path class="st31" d="M374.9,15.4c0-0.2,0-0.4-0.1-0.6c1.4,0,2.8,0,4.2,0c0,0.1,0,0.2,0,0.4C377.6,15.3,376.3,15.4,374.9,15.4z"/>
	<path class="st32" d="M448.3,37.9c0-0.1-0.1-0.3,0-0.4c0.9,0.1,1.9-0.6,2.6,0.5C450,38,449.2,38,448.3,37.9z"/>
	<path class="st33" d="M456.5,16.1c-0.2,0.2-0.4,0.4-0.6,0.6c-0.4-0.2-1.3-0.4-0.9-0.9C455.2,15.4,456,15.6,456.5,16.1z"/>
	<path class="st34" d="M334.5,45.7c1.9-0.3,2.6,0.5,2.3,2.4c-0.1,0.9,0,1.8,0,2.7c0,0.8,0.2,1.7-1.1,1.8c-1.3,0-1.1-0.9-1.1-1.7
		C334.5,49.1,334.5,47.4,334.5,45.7C334.5,45.6,334.5,45.7,334.5,45.7z"/>
</g>
</svg>
